# xmcd
#
# Track frame offsets:
#	150
#	17903
#	29254
#	43144
#	68521
#	94668
#	117283
#	131953
#	150719
#	170603
#
# Disc length: 2554 seconds
#
# Revision: 0
# Processed by: cddbd v1.5.2PL0 Copyright (c) Steve Scherf et al.
# Submitted via: EZCDAudioConverter 1.3.4.1
#
DISCID=8309f80a
DTITLE=Senderos Del Mal - Oscuras Creencias
DYEAR=2013
DGENRE=Black/Death Metal
TTITLE0=Aume (Intro) - Yanacona
TTITLE1=Ave De Mal Augurio
TTITLE2=Kai Kai Vilú (La Serpiente Ha Despertado)
TTITLE3=Demonio De Vida Eterna (Ancestral Fileu)
TTITLE4=Ceremonia Demonismo
TTITLE5=Pillán Toqui
TTITLE6=Invunche
TTITLE7=Minche Mapu (Debajo De La Tierra)
TTITLE8=Püllifúcha Püllikushe
TTITLE9=Venganza Y Maleficio - Aume (Outro)
EXTD=
EXTT0=
EXTT1=
EXTT2=
EXTT3=
EXTT4=
EXTT5=
EXTT6=
EXTT7=
EXTT8=
EXTT9=
PLAYORDER=
